ffmpeg started on 2025-05-12 at 16:46:58
Report written to "D:\Convert\FFMetrics\reports\psnr_report-6.txt"
Log level: 32
Command line:
ffmpeg -hide_banner -nostdin -i "G:\\\xc0\xed\xe8\xec\xe5\\\xce\xed\xe3\xee\xe8\xed\xe3\xe8\\!_35_\xcb\xe5\xf2\xee_2024\\DreamCast\\\xcc\xee\xff \xef\xee\xe4\xf0\xf3\xe3\xe0-\xee\xeb\xe5\xed\xe8\xf5\xe0, \xcd\xee\xea\xee\xf2\xe0\xed\\[DC] Shikanoko Nokonoko Koshitantan - 10_Telegram_HEVC.mkv" -i "G:\\\xc0\xed\xe8\xec\xe5\\\xce\xed\xe3\xee\xe8\xed\xe3\xe8\\!_35_\xcb\xe5\xf2\xee_2024\\DreamCast\\\xcc\xee\xff \xef\xee\xe4\xf0\xf3\xe3\xe0-\xee\xeb\xe5\xed\xe8\xf5\xe0, \xcd\xee\xea\xee\xf2\xe0\xed\\[DC] Shikanoko Nokonoko Koshitantan - 10_Telegram.mp4" -lavfi "[0:v]settb=AVTB,setpts=PTS-STARTPTS,format=pix_fmts=yuv420p10,fps=24000/1001,scale=1920:1080:flags=bicubic[main];[1:v]settb=AVTB,setpts=PTS-STARTPTS,format=pix_fmts=yuv420p,fps=24000/1001,scale=1920:1080:flags=bicubic[ref];[main][ref]psnr=eof_action=endall:stats_file='D\\:/Convert/FFMetrics/logs/psnr_logfile-6.txt'" -f null -
Input #0, matroska,webm, from 'G:\Аниме\Онгоинги\!_35_Лето_2024\DreamCast\Моя подруга-олениха, Нокотан\[DC] Shikanoko Nokonoko Koshitantan - 10_Telegram_HEVC.mkv':
  Metadata:
    COMPATIBLE_BRANDS: isomiso2avc1mp41
    MAJOR_BRAND     : isom
    MINOR_VERSION   : 512
    ENCODER         : Lavf61.7.100
  Duration: 00:23:41.83, start: -0.021000, bitrate: 1387 kb/s
  Stream #0:0: Video: hevc (Main 10), yuv420p10le(tv, bt709, progressive), 1920x1080 [SAR 1:1 DAR 16:9], 23.98 fps, 23.98 tbr, 1k tbn (default)
      Metadata:
        HANDLER_NAME    : VideoHandler
        VENDOR_ID       : [0][0][0][0]
        ENCODER         : Lavc61.19.100 libx265
        BPS             : 1190610
        DURATION        : 00:23:41.628708333
        NUMBER_OF_FRAMES: 34085
        NUMBER_OF_BYTES : 211575652
        _STATISTICS_WRITING_APP: mkvpropedit v66.0.0 ('Josie') 64-bit
        _STATISTICS_WRITING_DATE_UTC: 2025-05-08 11:44:20
        _STATISTICS_TAGS: BPS DURATION NUMBER_OF_FRAMES NUMBER_OF_BYTES
  Stream #0:1: Audio: aac (LC), 48000 Hz, stereo, fltp (default)
      Metadata:
        HANDLER_NAME    : SoundHandler
        VENDOR_ID       : [0][0][0][0]
        ENCODER         : Lavc61.19.100 aac
        BPS             : 193389
        DURATION        : 00:23:41.824000000
        NUMBER_OF_FRAMES: 66649
        NUMBER_OF_BYTES : 34370673
        _STATISTICS_WRITING_APP: mkvpropedit v66.0.0 ('Josie') 64-bit
        _STATISTICS_WRITING_DATE_UTC: 2025-05-08 11:44:20
        _STATISTICS_TAGS: BPS DURATION NUMBER_OF_FRAMES NUMBER_OF_BYTES
Input #1, mov,mp4,m4a,3gp,3g2,mj2, from 'G:\Аниме\Онгоинги\!_35_Лето_2024\DreamCast\Моя подруга-олениха, Нокотан\[DC] Shikanoko Nokonoko Koshitantan - 10_Telegram.mp4':
  Metadata:
    major_brand     : isom
    minor_version   : 512
    compatible_brands: isomiso2avc1mp41
    encoder         : Lavf60.16.100
  Duration: 00:23:41.77, start: 0.000000, bitrate: 3628 kb/s
  Stream #1:0[0x1](und): Video: h264 (High) (avc1 / 0x31637661), yuv420p(tv, bt709, progressive), 1920x1080 [SAR 1:1 DAR 16:9], 3480 kb/s, 23.98 fps, 23.98 tbr, 24k tbn (default)
      Metadata:
        handler_name    : VideoHandler
        vendor_id       : [0][0][0][0]
        encoder         : Lavc60.31.102 h264_qsv
  Stream #1:1[0x2](und): Audio: aac (HE-AACv2) (mp4a / 0x6134706D), 48000 Hz, stereo, fltp, 144 kb/s (default)
      Metadata:
        handler_name    : SoundHandler
        vendor_id       : [0][0][0][0]
Stream mapping:
  Stream #0:0 (hevc) -> settb:default
  Stream #1:0 (h264) -> settb:default
  psnr:default -> Stream #0:0 (wrapped_avframe)
  Stream #0:1 -> #0:1 (aac (native) -> pcm_s16le (native))
Output #0, null, to 'pipe:':
  Metadata:
    COMPATIBLE_BRANDS: isomiso2avc1mp41
    MAJOR_BRAND     : isom
    MINOR_VERSION   : 512
    encoder         : Lavf61.7.100
  Stream #0:0: Video: wrapped_avframe, yuv420p10le(tv, bt709, progressive), 1920x1080 [SAR 1:1 DAR 16:9], q=2-31, 200 kb/s, 23.98 fps, 23.98 tbn
      Metadata:
        encoder         : Lavc61.19.100 wrapped_avframe
  Stream #0:1: Audio: pcm_s16le, 48000 Hz, stereo, s16, 1536 kb/s (default)
      Metadata:
        HANDLER_NAME    : SoundHandler
        VENDOR_ID       : [0][0][0][0]
        _STATISTICS_TAGS: BPS DURATION NUMBER_OF_FRAMES NUMBER_OF_BYTES
        BPS             : 193389
        DURATION        : 00:23:41.824000000
        NUMBER_OF_FRAMES: 66649
        NUMBER_OF_BYTES : 34370673
        _STATISTICS_WRITING_APP: mkvpropedit v66.0.0 ('Josie') 64-bit
        _STATISTICS_WRITING_DATE_UTC: 2025-05-08 11:44:20
        encoder         : Lavc61.19.100 pcm_s16le
frame=  164 fps=0.0 q=-0.0 size=N/A time=00:00:06.84 bitrate=N/A speed=13.2x    frame=  395 fps=378 q=-0.0 size=N/A time=00:00:16.47 bitrate=N/A speed=15.8x    frame=  640 fps=412 q=-0.0 size=N/A time=00:00:26.69 bitrate=N/A speed=17.2x    frame=  871 fps=422 q=-0.0 size=N/A time=00:00:36.32 bitrate=N/A speed=17.6x    frame= 1130 fps=436 q=-0.0 size=N/A time=00:00:47.13 bitrate=N/A speed=18.2x    frame= 1364 fps=440 q=-0.0 size=N/A time=00:00:56.89 bitrate=N/A speed=18.4x    frame= 1602 fps=442 q=-0.0 size=N/A time=00:01:06.81 bitrate=N/A speed=18.4x    frame= 1838 fps=445 q=-0.0 size=N/A time=00:01:16.65 bitrate=N/A speed=18.5x    frame= 2102 fps=452 q=-0.0 size=N/A time=00:01:27.67 bitrate=N/A speed=18.8x    frame= 2280 fps=441 q=-0.0 size=N/A time=00:01:35.09 bitrate=N/A speed=18.4x    frame= 2449 fps=431 q=-0.0 size=N/A time=00:01:42.14 bitrate=N/A speed=  18x    frame= 2651 fps=428 q=-0.0 size=N/A time=00:01:50.56 bitrate=N/A speed=17.8x    frame= 2850 fps=425 q=-0.0 size=N/A time=00:01:58.86 bitrate=N/A speed=17.7x    frame= 3068 fps=424 q=-0.0 size=N/A time=00:02:07.96 bitrate=N/A speed=17.7x    frame= 3299 fps=426 q=-0.0 size=N/A time=00:02:17.59 bitrate=N/A speed=17.8x    frame= 3487 fps=422 q=-0.0 size=N/A time=00:02:25.43 bitrate=N/A speed=17.6x    frame= 3687 fps=420 q=-0.0 size=N/A time=00:02:33.77 bitrate=N/A speed=17.5x    frame= 3883 fps=418 q=-0.0 size=N/A time=00:02:41.95 bitrate=N/A speed=17.4x    frame= 4098 fps=418 q=-0.0 size=N/A time=00:02:50.92 bitrate=N/A speed=17.4x    frame= 4286 fps=415 q=-0.0 size=N/A time=00:02:58.76 bitrate=N/A speed=17.3x    frame= 4533 fps=419 q=-0.0 size=N/A time=00:03:09.06 bitrate=N/A speed=17.5x    frame= 4777 fps=421 q=-0.0 size=N/A time=00:03:19.24 bitrate=N/A speed=17.6x    frame= 4992 fps=420 q=-0.0 size=N/A time=00:03:28.20 bitrate=N/A speed=17.5x    frame= 5194 fps=420 q=-0.0 size=N/A time=00:03:36.63 bitrate=N/A speed=17.5x    frame= 5452 fps=423 q=-0.0 size=N/A time=00:03:47.39 bitrate=N/A speed=17.6x    frame= 5719 fps=426 q=-0.0 size=N/A time=00:03:58.52 bitrate=N/A speed=17.8x    frame= 5980 fps=429 q=-0.0 size=N/A time=00:04:09.41 bitrate=N/A speed=17.9x    frame= 6229 fps=431 q=-0.0 size=N/A time=00:04:19.80 bitrate=N/A speed=  18x    frame= 6487 fps=434 q=-0.0 size=N/A time=00:04:30.56 bitrate=N/A speed=18.1x    frame= 6721 fps=434 q=-0.0 size=N/A time=00:04:40.32 bitrate=N/A speed=18.1x    frame= 6949 fps=434 q=-0.0 size=N/A time=00:04:49.83 bitrate=N/A speed=18.1x    frame= 7185 fps=435 q=-0.0 size=N/A time=00:04:59.67 bitrate=N/A speed=18.2x    frame= 7430 fps=436 q=-0.0 size=N/A time=00:05:09.89 bitrate=N/A speed=18.2x    frame= 7687 fps=438 q=-0.0 size=N/A time=00:05:20.61 bitrate=N/A speed=18.3x    frame= 7924 fps=439 q=-0.0 size=N/A time=00:05:30.49 bitrate=N/A speed=18.3x    frame= 8195 fps=441 q=-0.0 size=N/A time=00:05:41.84 bitrate=N/A speed=18.4x    frame= 8459 fps=443 q=-0.0 size=N/A time=00:05:52.81 bitrate=N/A speed=18.5x    frame= 8710 fps=444 q=-0.0 size=N/A time=00:06:03.27 bitrate=N/A speed=18.5x    frame= 8949 fps=445 q=-0.0 size=N/A time=00:06:13.24 bitrate=N/A speed=18.6x    frame= 9185 fps=445 q=-0.0 size=N/A time=00:06:23.09 bitrate=N/A speed=18.6x    frame= 9451 fps=447 q=-0.0 size=N/A time=00:06:34.18 bitrate=N/A speed=18.6x    frame= 9688 fps=447 q=-0.0 size=N/A time=00:06:44.07 bitrate=N/A speed=18.7x    frame= 9933 fps=448 q=-0.0 size=N/A time=00:06:54.28 bitrate=N/A speed=18.7x    frame=10199 fps=449 q=-0.0 size=N/A time=00:07:05.38 bitrate=N/A speed=18.7x    frame=10428 fps=449 q=-0.0 size=N/A time=00:07:14.93 bitrate=N/A speed=18.7x    frame=10702 fps=451 q=-0.0 size=N/A time=00:07:26.36 bitrate=N/A speed=18.8x    frame=10973 fps=453 q=-0.0 size=N/A time=00:07:37.66 bitrate=N/A speed=18.9x    frame=11201 fps=452 q=-0.0 size=N/A time=00:07:47.17 bitrate=N/A speed=18.9x    frame=11460 fps=453 q=-0.0 size=N/A time=00:07:57.97 bitrate=N/A speed=18.9x    frame=11680 fps=453 q=-0.0 size=N/A time=00:08:07.15 bitrate=N/A speed=18.9x    frame=11930 fps=453 q=-0.0 size=N/A time=00:08:17.58 bitrate=N/A speed=18.9x    frame=12165 fps=453 q=-0.0 size=N/A time=00:08:27.38 bitrate=N/A speed=18.9x    frame=12420 fps=454 q=-0.0 size=N/A time=00:08:38.01 bitrate=N/A speed=18.9x    frame=12614 fps=453 q=-0.0 size=N/A time=00:08:46.10 bitrate=N/A speed=18.9x    frame=12869 fps=453 q=-0.0 size=N/A time=00:08:56.74 bitrate=N/A speed=18.9x    frame=13076 fps=453 q=-0.0 size=N/A time=00:09:05.37 bitrate=N/A speed=18.9x    frame=13284 fps=452 q=-0.0 size=N/A time=00:09:14.05 bitrate=N/A speed=18.8x    frame=13455 fps=450 q=-0.0 size=N/A time=00:09:21.18 bitrate=N/A speed=18.8x    frame=13614 fps=447 q=-0.0 size=N/A time=00:09:27.81 bitrate=N/A speed=18.7x    frame=13844 fps=447 q=-0.0 size=N/A time=00:09:37.41 bitrate=N/A speed=18.7x    frame=14076 fps=447 q=-0.0 size=N/A time=00:09:47.08 bitrate=N/A speed=18.7x    frame=14319 fps=448 q=-0.0 size=N/A time=00:09:57.22 bitrate=N/A speed=18.7x    frame=14538 fps=447 q=-0.0 size=N/A time=00:10:06.35 bitrate=N/A speed=18.7x    frame=14758 fps=447 q=-0.0 size=N/A time=00:10:15.53 bitrate=N/A speed=18.6x    frame=15010 fps=448 q=-0.0 size=N/A time=00:10:26.04 bitrate=N/A speed=18.7x    frame=15259 fps=448 q=-0.0 size=N/A time=00:10:36.42 bitrate=N/A speed=18.7x    frame=15517 fps=449 q=-0.0 size=N/A time=00:10:47.18 bitrate=N/A speed=18.7x    frame=15740 fps=449 q=-0.0 size=N/A time=00:10:56.48 bitrate=N/A speed=18.7x    frame=15968 fps=448 q=-0.0 size=N/A time=00:11:05.99 bitrate=N/A speed=18.7x    frame=16184 fps=448 q=-0.0 size=N/A time=00:11:15.00 bitrate=N/A speed=18.7x    frame=16445 fps=449 q=-0.0 size=N/A time=00:11:25.89 bitrate=N/A speed=18.7x    frame=16684 fps=449 q=-0.0 size=N/A time=00:11:35.86 bitrate=N/A speed=18.7x    frame=16949 fps=450 q=-0.0 size=N/A time=00:11:46.91 bitrate=N/A speed=18.8x    frame=17193 fps=450 q=-0.0 size=N/A time=00:11:57.09 bitrate=N/A speed=18.8x    frame=17446 fps=451 q=-0.0 size=N/A time=00:12:07.64 bitrate=N/A speed=18.8x    frame=17658 fps=450 q=-0.0 size=N/A time=00:12:16.48 bitrate=N/A speed=18.8x    frame=17882 fps=450 q=-0.0 size=N/A time=00:12:25.82 bitrate=N/A speed=18.8x    frame=18128 fps=450 q=-0.0 size=N/A time=00:12:36.08 bitrate=N/A speed=18.8x    frame=18359 fps=451 q=-0.0 size=N/A time=00:12:45.72 bitrate=N/A speed=18.8x    frame=18611 fps=451 q=-0.0 size=N/A time=00:12:56.23 bitrate=N/A speed=18.8x    frame=18846 fps=451 q=-0.0 size=N/A time=00:13:06.03 bitrate=N/A speed=18.8x    frame=19071 fps=451 q=-0.0 size=N/A time=00:13:15.41 bitrate=N/A speed=18.8x    frame=19335 fps=452 q=-0.0 size=N/A time=00:13:26.43 bitrate=N/A speed=18.8x    frame=19589 fps=452 q=-0.0 size=N/A time=00:13:37.02 bitrate=N/A speed=18.9x    frame=19838 fps=452 q=-0.0 size=N/A time=00:13:47.40 bitrate=N/A speed=18.9x    frame=20054 fps=452 q=-0.0 size=N/A time=00:13:56.41 bitrate=N/A speed=18.8x    frame=20296 fps=452 q=-0.0 size=N/A time=00:14:06.51 bitrate=N/A speed=18.8x    frame=20538 fps=452 q=-0.0 size=N/A time=00:14:16.60 bitrate=N/A speed=18.9x    frame=20755 fps=452 q=-0.0 size=N/A time=00:14:25.65 bitrate=N/A speed=18.8x    frame=21027 fps=453 q=-0.0 size=N/A time=00:14:37.00 bitrate=N/A speed=18.9x    frame=21293 fps=453 q=-0.0 size=N/A time=00:14:48.09 bitrate=N/A speed=18.9x    frame=21561 fps=454 q=-0.0 size=N/A time=00:14:59.27 bitrate=N/A speed=18.9x    frame=21820 fps=454 q=-0.0 size=N/A time=00:15:10.07 bitrate=N/A speed=18.9x    frame=22024 fps=454 q=-0.0 size=N/A time=00:15:18.58 bitrate=N/A speed=18.9x    frame=22283 fps=454 q=-0.0 size=N/A time=00:15:29.38 bitrate=N/A speed=18.9x    frame=22530 fps=454 q=-0.0 size=N/A time=00:15:39.68 bitrate=N/A speed=  19x    frame=22764 fps=454 q=-0.0 size=N/A time=00:15:49.44 bitrate=N/A speed=  19x    frame=22980 fps=454 q=-0.0 size=N/A time=00:15:58.45 bitrate=N/A speed=18.9x    frame=23124 fps=452 q=-0.0 size=N/A time=00:16:04.46 bitrate=N/A speed=18.9x    frame=23366 fps=452 q=-0.0 size=N/A time=00:16:14.55 bitrate=N/A speed=18.9x    frame=23598 fps=452 q=-0.0 size=N/A time=00:16:24.23 bitrate=N/A speed=18.9x    frame=23807 fps=452 q=-0.0 size=N/A time=00:16:32.95 bitrate=N/A speed=18.9x    frame=24044 fps=452 q=-0.0 size=N/A time=00:16:42.83 bitrate=N/A speed=18.8x    frame=24300 fps=452 q=-0.0 size=N/A time=00:16:53.51 bitrate=N/A speed=18.9x    frame=24547 fps=453 q=-0.0 size=N/A time=00:17:03.81 bitrate=N/A speed=18.9x    frame=24792 fps=453 q=-0.0 size=N/A time=00:17:14.03 bitrate=N/A speed=18.9x    frame=25062 fps=454 q=-0.0 size=N/A time=00:17:25.29 bitrate=N/A speed=18.9x    frame=25284 fps=453 q=-0.0 size=N/A time=00:17:34.55 bitrate=N/A speed=18.9x    frame=25528 fps=454 q=-0.0 size=N/A time=00:17:44.73 bitrate=N/A speed=18.9x    frame=25764 fps=454 q=-0.0 size=N/A time=00:17:54.57 bitrate=N/A speed=18.9x    frame=26045 fps=454 q=-0.0 size=N/A time=00:18:06.29 bitrate=N/A speed=  19x    frame=26288 fps=454 q=-0.0 size=N/A time=00:18:16.42 bitrate=N/A speed=  19x    frame=26554 fps=455 q=-0.0 size=N/A time=00:18:27.52 bitrate=N/A speed=  19x    frame=26808 fps=455 q=-0.0 size=N/A time=00:18:38.11 bitrate=N/A speed=  19x    frame=27077 fps=456 q=-0.0 size=N/A time=00:18:49.33 bitrate=N/A speed=  19x    frame=27323 fps=456 q=-0.0 size=N/A time=00:18:59.59 bitrate=N/A speed=  19x    frame=27574 fps=456 q=-0.0 size=N/A time=00:19:10.06 bitrate=N/A speed=  19x    frame=27808 fps=456 q=-0.0 size=N/A time=00:19:19.82 bitrate=N/A speed=  19x    frame=28016 fps=456 q=-0.0 size=N/A time=00:19:28.50 bitrate=N/A speed=  19x    frame=28205 fps=455 q=-0.0 size=N/A time=00:19:36.38 bitrate=N/A speed=  19x    frame=28450 fps=455 q=-0.0 size=N/A time=00:19:46.60 bitrate=N/A speed=  19x    frame=28643 fps=455 q=-0.0 size=N/A time=00:19:54.65 bitrate=N/A speed=  19x    frame=28885 fps=455 q=-0.0 size=N/A time=00:20:04.74 bitrate=N/A speed=  19x    frame=29144 fps=455 q=-0.0 size=N/A time=00:20:15.54 bitrate=N/A speed=  19x    frame=29399 fps=455 q=-0.0 size=N/A time=00:20:26.18 bitrate=N/A speed=  19x    frame=29639 fps=456 q=-0.0 size=N/A time=00:20:36.19 bitrate=N/A speed=  19x    frame=29850 fps=455 q=-0.0 size=N/A time=00:20:44.99 bitrate=N/A speed=  19x    frame=30083 fps=455 q=-0.0 size=N/A time=00:20:54.71 bitrate=N/A speed=  19x    frame=30347 fps=456 q=-0.0 size=N/A time=00:21:05.72 bitrate=N/A speed=  19x    frame=30607 fps=456 q=-0.0 size=N/A time=00:21:16.56 bitrate=N/A speed=  19x    frame=30829 fps=456 q=-0.0 size=N/A time=00:21:25.82 bitrate=N/A speed=  19x    frame=31081 fps=456 q=-0.0 size=N/A time=00:21:36.33 bitrate=N/A speed=  19x    frame=31323 fps=456 q=-0.0 size=N/A time=00:21:46.43 bitrate=N/A speed=  19x    frame=31575 fps=456 q=-0.0 size=N/A time=00:21:56.94 bitrate=N/A speed=  19x    frame=31818 fps=457 q=-0.0 size=N/A time=00:22:07.07 bitrate=N/A speed=  19x    frame=32019 fps=456 q=-0.0 size=N/A time=00:22:15.45 bitrate=N/A speed=  19x    frame=32174 fps=455 q=-0.0 size=N/A time=00:22:21.92 bitrate=N/A speed=  19x    frame=32362 fps=454 q=-0.0 size=N/A time=00:22:29.76 bitrate=N/A speed=18.9x    frame=32535 fps=453 q=-0.0 size=N/A time=00:22:36.98 bitrate=N/A speed=18.9x    frame=32687 fps=452 q=-0.0 size=N/A time=00:22:43.32 bitrate=N/A speed=18.9x    frame=32857 fps=451 q=-0.0 size=N/A time=00:22:50.41 bitrate=N/A speed=18.8x    frame=33018 fps=450 q=-0.0 size=N/A time=00:22:57.12 bitrate=N/A speed=18.8x    frame=33186 fps=449 q=-0.0 size=N/A time=00:23:04.13 bitrate=N/A speed=18.7x    frame=33345 fps=448 q=-0.0 size=N/A time=00:23:10.76 bitrate=N/A speed=18.7x    frame=33494 fps=447 q=-0.0 size=N/A time=00:23:16.97 bitrate=N/A speed=18.7x    frame=33648 fps=446 q=-0.0 size=N/A time=00:23:23.40 bitrate=N/A speed=18.6x    frame=33786 fps=445 q=-0.0 size=N/A time=00:23:29.15 bitrate=N/A speed=18.6x    frame=33951 fps=444 q=-0.0 size=N/A time=00:23:36.03 bitrate=N/A speed=18.5x    [Parsed_psnr_10 @ 000002a85f05c2c0] PSNR y:47.377197 u:50.189506 v:50.031421 average:48.112019 min:36.122781 max:inf
[out#0/null @ 000002a851f9eec0] video:14646KiB audio:266596KiB subtitle:0KiB other streams:0KiB global headers:0KiB muxing overhead: unknown
frame=34085 fps=444 q=-0.0 Lsize=N/A time=00:23:41.62 bitrate=N/A speed=18.5x    
